<svg width="100%" height="100%" viewBox="0 0 80 38" fill="none" xmlns="http://www.w3.org/2000/svg">
<path d="M2 26H0V24V22V20V18V16V14V12V10V8H2H4H6H8H10H12H14V10V12H12H10H8H6H4V14V16H6H8H10H12V18V20H10H8H6H4V22V24V26H2ZM28 26H26V24V22V20H24H22H20V22V24V26H18H16V24V22V20V18V16V14V12H18V10H20V8H22H24H26V10H28V12H30V14V16V18V20V22V24V26H28ZM24 16H26V14H24V12H22V14H20V16H22H24ZM34 26H32V24V22V20V18V16V14V12V10V8H34H36H38H40H42H44V10H46V12V14V16V18H44V20H42H40H38H36V22V24V26H34ZM40 16H42V14V12H40H38H36V14V16H38H40ZM58 26H56H54H52H50V24H48V22V20V18V16V14V12V10H50V8H52H54H56H58H60V10H62V12V14V16V18V20V22V24H60V26H58ZM56 22H58V20V18V16V14V12H56H54H52V14V16V18V20V22H54H56ZM74 26H72V24H70V26H68H66V24H64V22V20V18V16V14V12V10V8H66H68V10V12V14V16V18V20H70V18H72V20H74V18V16V14V12V10V8H76H78V10V12V14V16V18V20V22V24H76V26H74Z" fill="#48576A"/>
<rect x="50" y="2" width="4" height="4" fill="#48576A"/>
<rect x="56" y="2" width="4" height="4" fill="#48576A"/>
<rect x="41" y="33" width="1" height="1" fill="#48576A"/>
<rect x="42" y="33" width="1" height="1" fill="#48576A"/>
<rect x="41" y="35" width="1" height="1" fill="#48576A"/>
<rect x="41" y="37" width="1" height="1" fill="#48576A"/>
<rect x="42" y="35" width="1" height="1" fill="#48576A"/>
<rect x="42" y="37" width="1" height="1" fill="#48576A"/>
<rect x="43" y="37" width="1" height="1" fill="#48576A"/>
<rect x="44" y="36" width="1" height="1" fill="#48576A"/>
<rect x="45" y="35" width="1" height="1" fill="#48576A"/>
<rect x="45" y="34" width="1" height="1" fill="#48576A"/>
<rect width="1" height="1" transform="matrix(-1 0 0 1 63 33)" fill="#48576A"/>
<rect width="1" height="1" transform="matrix(-1 0 0 1 64 33)" fill="#48576A"/>
<rect width="1" height="1" transform="matrix(-1 0 0 1 65 33)" fill="#48576A"/>
<rect width="1" height="1" transform="matrix(-1 0 0 1 66 33)" fill="#48576A"/>
<rect width="1" height="1" transform="matrix(-1 0 0 1 67 33)" fill="#48576A"/>
<rect width="1" height="1" transform="matrix(-1 0 0 1 63 35)" fill="#48576A"/>
<rect width="1" height="1" transform="matrix(-1 0 0 1 63 37)" fill="#48576A"/>
<rect width="1" height="1" transform="matrix(-1 0 0 1 64 35)" fill="#48576A"/>
<rect width="1" height="1" transform="matrix(-1 0 0 1 64 37)" fill="#48576A"/>
<rect width="1" height="1" transform="matrix(-1 0 0 1 65 35)" fill="#48576A"/>
<rect width="1" height="1" transform="matrix(-1 0 0 1 65 37)" fill="#48576A"/>
<rect width="1" height="1" transform="matrix(-1 0 0 1 66 35)" fill="#48576A"/>
<rect width="1" height="1" transform="matrix(-1 0 0 1 66 37)" fill="#48576A"/>
<rect width="1" height="1" transform="matrix(-1 0 0 1 67 35)" fill="#48576A"/>
<rect width="1" height="1" transform="matrix(-1 0 0 1 67 37)" fill="#48576A"/>
<rect width="1" height="1" transform="matrix(-1 0 0 1 56 33)" fill="#48576A"/>
<rect width="1" height="1" transform="matrix(-1 0 0 1 57 33)" fill="#48576A"/>
<rect width="1" height="1" transform="matrix(-1 0 0 1 58 33)" fill="#48576A"/>
<rect width="1" height="1" transform="matrix(-1 0 0 1 59 33)" fill="#48576A"/>
<rect width="1" height="1" transform="matrix(-1 0 0 1 60 33)" fill="#48576A"/>
<rect width="1" height="1" transform="matrix(-1 0 0 1 60 34)" fill="#48576A"/>
<rect width="1" height="1" transform="matrix(-1 0 0 1 59 35)" fill="#48576A"/>
<rect width="1" height="1" transform="matrix(-1 0 0 1 58 36)" fill="#48576A"/>
<rect width="1" height="1" transform="matrix(-1 0 0 1 59 37)" fill="#48576A"/>
<rect width="1" height="1" transform="matrix(-1 0 0 1 57 35)" fill="#48576A"/>
<rect x="48" y="37" width="1" height="1" fill="#48576A"/>
<rect x="49" y="36" width="1" height="1" fill="#48576A"/>
<rect x="49" y="35" width="1" height="1" fill="#48576A"/>
<rect x="49" y="34" width="1" height="1" fill="#48576A"/>
<rect x="49" y="33" width="1" height="1" fill="#48576A"/>
<rect width="1" height="1" transform="matrix(-1 0 0 1 53 37)" fill="#48576A"/>
<rect width="1" height="1" transform="matrix(-1 0 0 1 52 36)" fill="#48576A"/>
<rect width="1" height="1" transform="matrix(-1 0 0 1 52 35)" fill="#48576A"/>
<rect width="1" height="1" transform="matrix(-1 0 0 1 52 34)" fill="#48576A"/>
<rect width="1" height="1" transform="matrix(-1 0 0 1 52 33)" fill="#48576A"/>
<rect x="11" y="33" width="1" height="1" fill="#48576A"/>
<rect x="12" y="33" width="1" height="1" fill="#48576A"/>
<rect x="13" y="33" width="1" height="1" fill="#48576A"/>
<rect x="14" y="33" width="1" height="1" fill="#48576A"/>
<rect x="15" y="33" width="1" height="1" fill="#48576A"/>
<rect x="11" y="35" width="1" height="1" fill="#48576A"/>
<rect x="12" y="35" width="1" height="1" fill="#48576A"/>
<rect x="13" y="35" width="1" height="1" fill="#48576A"/>
<rect x="14" y="35" width="1" height="1" fill="#48576A"/>
<rect x="15" y="35" width="1" height="1" fill="#48576A"/>
<rect x="11" y="37" width="1" height="1" fill="#48576A"/>
<rect x="12" y="37" width="1" height="1" fill="#48576A"/>
<rect x="13" y="36" width="1" height="1" fill="#48576A"/>
<rect x="20" y="33" width="1" height="1" fill="#48576A"/>
<rect x="20" y="35" width="1" height="1" fill="#48576A"/>
<rect x="22" y="35" width="1" height="1" fill="#48576A"/>
<rect x="22" y="36" width="1" height="1" fill="#48576A"/>
<rect x="21" y="37" width="1" height="1" fill="#48576A"/>
<rect x="18" y="34" width="1" height="1" fill="#48576A"/>
<rect x="19" y="34" width="1" height="1" fill="#48576A"/>
<rect x="20" y="34" width="1" height="1" fill="#48576A"/>
<rect x="21" y="34" width="1" height="1" fill="#48576A"/>
<rect x="22" y="34" width="1" height="1" fill="#48576A"/>
<rect x="18" y="37" width="1" height="1" fill="#48576A"/>
<rect x="19" y="36" width="1" height="1" fill="#48576A"/>
<rect x="32" y="33" width="1" height="1" fill="#48576A"/>
<rect x="32" y="34" width="1" height="1" fill="#48576A"/>
<rect x="34" y="33" width="1" height="1" fill="#48576A"/>
<rect x="34" y="34" width="1" height="1" fill="#48576A"/>
<rect x="36" y="33" width="1" height="1" fill="#48576A"/>
<rect x="36" y="34" width="1" height="1" fill="#48576A"/>
<rect x="36" y="35" width="1" height="1" fill="#48576A"/>
<rect x="36" y="36" width="1" height="1" fill="#48576A"/>
<rect x="35" y="37" width="1" height="1" fill="#48576A"/>
<rect x="34" y="37" width="1" height="1" fill="#48576A"/>
<rect x="33" y="37" width="1" height="1" fill="#48576A"/>
<rect x="29" y="36" width="1" height="1" fill="#48576A"/>
<rect x="28" y="37" width="1" height="1" fill="#48576A"/>
<rect x="27" y="37" width="1" height="1" fill="#48576A"/>
<rect x="26" y="37" width="1" height="1" fill="#48576A"/>
<rect x="25" y="33" width="1" height="1" fill="#48576A"/>
<rect x="26" y="33" width="1" height="1" fill="#48576A"/>
<rect x="27" y="33" width="1" height="1" fill="#48576A"/>
<rect x="28" y="33" width="1" height="1" fill="#48576A"/>
<rect x="29" y="33" width="1" height="1" fill="#48576A"/>
<rect x="25" y="35" width="1" height="1" fill="#48576A"/>
<rect x="26" y="35" width="1" height="1" fill="#48576A"/>
<rect x="27" y="35" width="1" height="1" fill="#48576A"/>
<rect x="28" y="35" width="1" height="1" fill="#48576A"/>
<rect x="29" y="35" width="1" height="1" fill="#48576A"/>
</svg>
