<?xml version="1.0" encoding="UTF-8" standalone="no"?>
<!-- Created with Inkscape (http://www.inkscape.org/) -->

<svg
   width="960"
   height="999.67194"
   viewBox="0 0 960 999.67194"
   version="1.1"
   id="svg1"
   inkscape:version="1.3.1 (91b66b0783, 2023-11-16)"
   sodipodi:docname="logo_0.svg"
   xml:space="preserve"
   xmlns:inkscape="http://www.inkscape.org/namespaces/inkscape"
   xmlns:sodipodi="http://sodipodi.sourceforge.net/DTD/sodipodi-0.dtd"
   xmlns="http://www.w3.org/2000/svg"
   xmlns:svg="http://www.w3.org/2000/svg"><sodipodi:namedview
     id="namedview1"
     pagecolor="#8d8d8d"
     bordercolor="#ffffff"
     borderopacity="1"
     inkscape:showpageshadow="0"
     inkscape:pageopacity="0"
     inkscape:pagecheckerboard="0"
     inkscape:deskcolor="#2b2b2b"
     inkscape:document-units="px"
     showgrid="false"
     showguides="true"
     inkscape:zoom="0.95231243"
     inkscape:cx="1422.8524"
     inkscape:cy="1477.4563"
     inkscape:current-layer="layer1"><sodipodi:guide
       position="-668.93391,2205.681"
       orientation="0,1920"
       id="guide1"
       inkscape:locked="false" /><sodipodi:guide
       position="960,3437.6799"
       orientation="1080,0"
       id="guide2"
       inkscape:locked="false" /><sodipodi:guide
       position="-960,2357.6799"
       orientation="-1080,0"
       id="guide4"
       inkscape:locked="false" /><inkscape:grid
       type="axonomgrid"
       id="grid4"
       units="mm"
       originx="-960"
       originy="-2357.6799"
       spacingx="0"
       spacingy="3.7795276"
       empcolor="#737373"
       empopacity="0.30196078"
       color="#737373"
       opacity="0.14901961"
       empspacing="5"
       dotted="false"
       gridanglex="30"
       gridanglez="30"
       visible="false"
       enabled="false" /><inkscape:grid
       id="grid5"
       units="px"
       originx="-960"
       originy="-2357.6799"
       spacingx="8"
       spacingy="8"
       empcolor="#737373"
       empopacity="0.30196078"
       color="#737373"
       opacity="0.14901961"
       empspacing="2"
       dotted="false"
       gridanglex="30"
       gridanglez="30"
       visible="false"
       enabled="true" /><sodipodi:guide
       position="-698.63453,1125.681"
       orientation="0,-1"
       id="guide14"
       inkscape:locked="false" /></sodipodi:namedview><defs
     id="defs1" /><g
     inkscape:groupmode="layer"
     id="layer1"
     inkscape:label="Export"
     transform="translate(-960,-1125.681)"><g
       id="g19"
       inkscape:label="Logo-Black"
       style="display:inline"
       transform="translate(-1.5966797e-6,-177.0215)"><rect
         style="display:inline;fill:#1c1c22;fill-opacity:1;stroke-width:1.5"
         id="rect15"
         width="960"
         height="999.67194"
         x="960"
         y="1302.7025"
         inkscape:label="BG-Black" /><path
         style="fill:#ffffff;fill-opacity:1;stroke:#ffffff;stroke-width:0"
         d="m 1126.7311,1894.3363 -72.4553,-59.8543 15.7512,-53.5539 53.5538,-66.1547 -9.4506,-116.5584 166.962,-69.305 50.4036,-74.5554 106.0576,-91.3565 109.2079,131.2594 30.4522,44.1032 81.9059,4.2003 78.7556,68.2549 -10.5007,152.2609 67.2048,18.9014 -7.3505,50.4036 26.2519,28.3521 -13.651,42.003 -18.9014,13.651 -29.4021,173.2624 -641.5961,-7.3505 z"
         id="path15" /><path
         style="display:inline;fill:#1c1c22;fill-opacity:1"
         d="m 1137.4363,1923.6674 c 0,0 -23.1323,-19.9676 -33.1162,-23.6368 -22.0716,-8.1115 -36.559,-21.0597 -46.3426,-41.419 -5.2437,-10.9119 -7.4827,-21.3241 -7.5035,-34.8943 -0.017,-11.4056 0.8391,-16.6391 4.5935,-28.0649 5.77,-17.5595 15.9933,-32.7261 35.9335,-53.3089 6.7621,-6.98 12.3432,-13.6142 12.6972,-15.0931 0.3474,-1.4514 0.6849,-31.8987 0.75,-67.6609 l 0.1183,-65.0221 8.25,-8.0857 c 16.4829,-16.1547 39.1146,-31.9696 62.8142,-43.8944 30.973,-15.5844 68.2955,-26.9556 101.1329,-30.8126 l 10.1325,-1.1902 3.3407,-9.9864 c 11.8113,-35.3069 29.7581,-69.9285 47.683,-91.9865 6.6002,-8.122 24.6386,-26.3194 31.6467,-31.9257 35.468,-28.3735 60.9033,-33.669 90.4983,-18.8414 25.5413,12.7966 50.0844,35.2866 69.8015,63.9623 15.1022,21.964 27.3671,47.3017 37.662,77.8048 l 3.7125,11 6.4128,0.6992 c 52.9731,5.776 107.3123,27.4733 149.2822,59.6075 7.9208,6.0645 24.6902,22.1835 24.5258,23.5746 -0.595,5.037 0.3255,154.4183 0.9578,155.415 0.4523,0.713 12.8669,4.6514 27.588,8.7521 28.3347,7.8928 32.076,9.2441 35.4039,12.7864 2.6736,2.8459 5.1607,9.8883 5.1354,14.5409 -0.019,3.5762 -3.4037,13.9231 -8.3813,25.6243 -1.4037,3.3 -2.8421,7.4853 -3.1964,9.3007 -0.575,2.9464 -0.2287,3.659 3.2267,6.6397 6.6274,5.7171 7.8362,6.9282 11.5378,11.5596 10.2147,12.7804 13.9933,28.2857 10.3251,42.3689 -5.7251,21.9801 -22.925,37.6228 -46.1548,41.9762 z m 654.3121,-31.4563 c 12.0629,-7.65 13.8879,-29.4687 2.9304,-35.034 -6.9318,-3.5207 -20.4277,-7.2272 -23.9277,-6.5715 -5.3879,1.0094 -19.1847,7.7602 -19.1847,7.7602 -1.3447,0.3669 -2.9636,0.6549 -5.4831,1.3947 -4.4225,1.2987 -4.5645,1.7589 -7.477,10.1011 -1.4195,4.066 -2.8697,13.2412 -2.1575,13.6508 4.0288,1.3896 31.0446,10.5428 41.8429,10.9911 1.71,1.71 9.142,0.444 13.4567,-2.2924 z m -12.1094,-3.7344 c -5.8547,-7.4431 1.1542,-24.5327 10.9884,-26.7926 2.3738,-0.5455 7.939,1.1693 7.939,10.7747 0,5.5458 -3.7545,12.4529 -8.6262,15.8696 -4.9025,3.4382 -7.6818,3.4783 -10.3012,0.1483 z m -433.8799,-6.7872 c -1.061,-2.8097 -35.8932,-13.7962 -45.1926,-26.4624 0,-1.5441 38.6263,19.59 53.2215,12.7736 3.3918,-1.584 4.8373,-6.5193 5.5016,-9.384 -11.623,-7.4689 -24.8123,-11.884 -35.7231,-20.4241 -2.0387,-1.6295 -0.1011,-1.2658 10.5,1.9706 19.2599,5.88 22.5941,6.8043 27.0962,7.5114 3.6626,0.5753 4.3271,0.3499 6.277,-2.1289 1.1994,-1.5248 4.9211,-9.7118 4.7409,-10.2521 -0.1801,-0.5403 -5.9589,-5.3057 -13.1627,-8.9855 -13.4366,-6.8635 -21.0364,-17.4032 -21.0364,-17.4032 l 3.6387,-2.9518 c 0,0 58.076,14.7199 69.3084,17.1001 5.6176,1.143 7.2618,0.6565 8.2752,-2.0415 1.6896,-6.3339 1.738,-6.5627 3.3364,-12.9253 0.7974,-3.1542 0.6849,-3.3105 -3.8231,-5.3123 -8.9267,-3.964 -55.7542,-23.4624 -68.1506,-27.4693 -22.3931,-7.238 -28.5879,-8.5789 -39.5,-8.5502 -19.8952,0.052 -47.2123,10.0598 -51.4031,18.8313 -2.3557,4.9306 -6.0132,20.5397 -6.6841,28.5257 -0.648,7.7147 1.0103,32.161 2.3407,34.5055 15.0482,11.676 29.2161,25.7008 47.2465,32.5343 11.1296,4.1337 32.9396,10.8169 35.5619,10.8971 2.9185,0.089 8.2503,-8.718 7.6307,-10.359 z m 269.8193,6.4221 c 0.8793,-3.3994 -2.7001,-39.8637 -4.585,-46.7094 -0.1831,-0.6651 -2.5885,-2.3522 -5.3452,-3.7492 l -5.0122,-2.5399 -1.2047,2.2493 c -1.3481,2.5168 -1.3034,7.9126 0.2051,24.7492 2.1355,23.836 1.5149,21.4993 6.7463,25.403 5.3899,4.022 8.2616,4.2085 9.1957,0.597 z m 105.7683,-13.25 c -0.2725,-10.9374 -0.2009,-11.3669 2.5735,-15.4561 l 2.8539,-4.206 -1.1039,-13.1871 c -1.7541,-20.9566 -1.4987,-27.606 1.2701,-33.0628 1.301,-2.5641 3.8694,-6.4534 5.7077,-8.643 3.2654,-3.8894 3.6823,-4.0582 18.1294,-7.338 8.1329,-1.8464 14.7875,-3.6044 14.7881,-3.9068 5e-4,-0.3023 -3.3175,-1.3761 -7.3734,-2.3861 -6.4991,-1.6183 -8.6195,-1.705 -17.8656,-0.7297 -10.409,1.0979 -10.5846,1.0804 -22.3757,-2.2211 -20.7419,-5.8077 -62.9241,-17.8583 -129.8844,-37.1052 -35.7499,-10.2759 -69.4993,-19.9607 -74.9986,-21.5218 l -9.9988,-2.8384 -5.5012,2.958 c -3.0257,1.6268 -7.6388,4.5229 -10.2513,6.4357 l -4.75,3.4778 v 9.4903 c 0,6.3629 -0.3707,9.4903 -1.1249,9.4903 -0.6187,0 -3.7734,1.1885 -7.0104,2.6412 l -5.8855,2.6413 -22.9896,-7.3074 c -20.1971,-6.4198 -22.9957,-7.5605 -23.0399,-9.3913 -0.028,-1.1461 -0.6273,-7.4838 -1.3325,-14.0838 -0.7051,-6.6 -1.1113,-12.45 -0.9026,-13 0.2088,-0.55 3.7371,-3.6738 7.8408,-6.9418 4.1036,-3.2679 7.1199,-6.2313 6.7029,-6.5853 -0.4171,-0.354 -4.3583,-1.6415 -8.7583,-2.8611 -4.4,-1.2197 -12.95,-3.7473 -19,-5.617 -6.05,-1.8697 -17.8145,-5.3852 -26.1434,-7.8124 l -15.1434,-4.4129 -10.765,7.4261 c -15.7676,10.877 -32.4075,23.5812 -36.7134,28.0298 l -3.7651,3.89 1.2651,11.3736 1.2652,11.3737 8.5,3.3323 c 7.3963,2.8997 36.4769,12.6256 71,23.7458 5.775,1.8602 20.85,6.7483 33.5,10.8625 28.2218,9.1787 62.5178,20.2257 72.25,23.2723 l 7.25,2.2696 v -2.7946 c 0,-3.3475 6.1788,-9.6871 19,-19.4947 4.675,-3.5762 8.5,-6.7061 8.5,-6.9554 0,-0.7161 -21.5592,-13.6005 -22.7573,-13.6005 -0.5918,0 -0.8092,-0.2668 -0.4832,-0.5928 1.385,-1.385 47.5368,11.5897 114.7404,32.2572 15.125,4.6515 31.1,9.5262 35.5,10.8326 13.0213,3.8663 47.9931,14.6577 48.0831,14.8373 0.2976,0.5937 3.4169,26.7236 3.4169,28.6229 0,2.216 -0.1063,2.2565 -1.8287,0.6978 -3.6547,-3.3075 -7.0166,-1.3833 -11.8858,6.803 -1.5583,2.6199 -1.7206,21.155 -0.1935,22.0988 1.6129,0.9968 17.1978,6.3242 18.6883,6.3882 0.9836,0.042 1.2153,-2.5521 1,-11.195 z m -342.5663,-130.9973 c -5.6788,-5.9144 -5.3065,-14.4144 0.8225,-18.7787 4.9301,-3.5105 11.3722,-1.8779 15.3737,3.8962 5.6004,8.0815 1.6386,16.953 -7.9695,17.8458 -4.5862,0.4262 -5.1763,0.2136 -8.2267,-2.9633 z m 211.2142,115.4002 -0.7148,-25.847 3.6809,-7.653 c 2.0245,-4.2091 4.0983,-7.6529 4.6085,-7.6529 1.5624,0 7.9972,6.1181 7.9972,7.6036 0,1.7065 1.1969,1.7996 2.7803,0.2162 0.9069,-0.907 2.3223,-0.6453 6.1128,1.1301 l 4.9327,2.3104 2.9259,-2.0835 c 5.9676,-4.2493 5.8474,-4.6368 -2.222,-7.1675 -5.5804,-1.7501 -7.5071,-2.815 -7.7312,-4.2729 -0.2255,-1.4672 -3.4764,-3.2312 -13.2985,-7.2161 -7.15,-2.9009 -16.375,-6.6781 -20.5,-8.3939 -4.1249,-1.7157 -7.8361,-3.1211 -8.247,-3.123 -0.4109,0 -2.4908,1.5719 -4.622,3.4974 -3.8373,3.4667 -3.9136,3.4871 -7.8452,2.1 -2.1836,-0.7705 -5.5037,-1.4164 -7.3779,-1.4355 -1.8743,-0.019 -5.6578,-0.7343 -8.4078,-1.5892 -8.3283,-2.5892 -10.0219,-2.2039 -13.9509,3.1739 -2.2371,3.062 -4.0174,7.13 -5.0097,11.4474 -2.3484,10.2175 -2.1593,11.3371 2.2106,13.0873 2.0625,0.826 5.6536,2.3271 7.9801,3.3358 l 4.2301,1.834 -0.1566,5.6829 c -0.1339,4.8575 0.3404,6.5029 3.2652,11.3289 1.8821,3.1053 4.4136,6.5777 5.6257,7.7164 l 2.2039,2.0704 0.4678,-2.3765 c 0.2572,-1.3072 0.9837,-9.0959 1.6144,-17.3084 l 1.1467,-14.9318 4.0903,-5.831 c 2.2496,-3.207 4.2468,-5.6744 4.4381,-5.4831 0.1914,0.1914 -0.3787,2.5596 -1.2668,5.2628 -1.1232,3.419 -1.7668,10.1581 -2.1147,22.1416 -0.4532,15.6134 -0.3255,17.4975 1.3629,20.1173 2.8743,4.4598 8.1731,10.156 9.4475,10.156 0.8433,0 0.9664,-4.6839 0.4666,-17.75 -0.7141,-18.6677 -0.19,-23.8308 3.3787,-33.2836 1.8728,-4.9606 12.0843,-18.0169 10.6638,-13.6346 -5.8832,13.1161 -9.6414,40.5941 -6.6351,58.9502 0.8328,5.0844 1.6941,6.6226 7.1397,12.75 3.4061,3.8324 6.6095,6.968 7.1187,6.968 0.5623,0 0.6452,-10.1478 0.2111,-25.8471 z m 99.1497,8.8933 -0.7042,-12.9538 4.0632,-4.408 c 2.2347,-2.4245 4.0631,-4.9007 4.0631,-5.5027 0,-0.6021 -3.7125,-2.2768 -8.25,-3.7217 -28.8204,-9.177 -46.0971,-14.46 -47.2874,-14.46 -1.9521,0 -6.6126,4.9144 -7.3794,7.7814 -0.6316,2.3616 0.2204,15.9414 1.4738,23.4903 0.7771,4.6806 1.0271,4.815 23.45,12.6076 9.6212,3.3436 19.743,6.9675 22.493,8.0532 9.1427,3.6094 8.8848,3.9571 8.0779,-10.8863 z m -540.0778,-0.01 c 9.35,-1.6285 31.6235,-5.903 49.4967,-9.499 17.8732,-3.5959 32.8357,-6.5381 33.25,-6.5381 0.4143,0 0.7533,-1.3269 0.7533,-2.9488 0,-5.5488 2.9977,-25.5435 5.4049,-36.0512 3.0246,-13.2019 5.8148,-20.6394 10.1722,-27.1146 4.1397,-6.1514 4.2259,-6.9689 0.6729,-6.3781 -1.5125,0.2515 -15.8,0.9221 -31.75,1.4903 -38.7181,1.3791 -53.9505,2.6918 -59,5.0845 -5.7282,2.7144 -12.7396,9.058 -16.7511,15.1557 -11.7835,17.9115 -15.473,32.3478 -13.7468,53.7885 0.9847,12.2297 1.7715,15.9741 3.3563,15.9727 0.6279,-6e-4 8.7916,-1.3335 18.1416,-2.9619 z m -53.1716,-26.1618 c 0.8216,-6.3436 6.2917,-23.1443 9.8133,-30.1399 8.3228,-16.5335 14.1281,-22.5189 30.7742,-31.729 l 12.4159,-6.8695 -6.4159,-0.7669 c -4.7625,-0.5693 -5.7107,-0.909 -3.6793,-1.3184 l 2.7366,-0.5516 -4.108,-6.2379 -4.1079,-6.2379 -3.6287,2.8751 c -5.3675,4.2527 -20.104,19.788 -24.7779,26.1208 -6.4797,8.7796 -9.7872,15.5665 -14.3778,29.5034 l -4.2897,13.0234 3.6584,8.5177 c 2.0121,4.6848 3.6721,9.1742 3.6888,9.9766 0.061,2.9445 1.6809,-1.4009 2.298,-6.1659 z m 661.6217,-2.9674 c 11.2539,-6.3251 13.132,-24.4516 3.1382,-30.2883 -3.3495,-1.9562 -3.4214,-1.9567 -6.9394,-0.048 -9.5407,5.176 -12.4068,27.9843 -3.9434,31.381 3.2848,1.3182 3.6212,1.2729 7.7446,-1.0446 z m -7.3934,-5.1304 c -2.9107,-4.1555 -1.2636,-14.129 3.1364,-18.9909 2.406,-2.6586 6.9283,-2.294 8.9016,0.7177 1.8944,2.8912 2.0705,9.3445 0.3465,12.693 -2.0627,4.0062 -6.2333,7.8027 -8.5716,7.8027 -1.241,0 -2.9568,-1.0001 -3.8129,-2.2225 z m -285.572,-88.4223 c 0.01,-1.1795 0.9271,-5.0965 2.0414,-8.7044 1.8828,-6.0956 2.456,-6.8614 8.1016,-10.8215 l 6.0755,-4.2617 -6.8516,-2.2097 c -15.4182,-4.9726 -23.7898,-7.358 -25.823,-7.358 -4.0845,0 -7.9971,5.2919 -10.8681,14.6994 -1.4772,4.8403 -2.6801,9.7409 -2.6731,10.8901 0.016,2.5698 2.0784,3.5936 17.0126,8.4427 11.9409,3.8772 12.9526,3.8244 12.9847,-0.6769 z m -316.4147,-18.3553 c 3.2554,-18.2927 12.179,-40.2977 19.6681,-48.5 5.151,-5.6416 7.6391,-5.7076 2.6905,-0.071 -1.7571,2.0012 -3.0224,3.8072 -2.8117,4.0133 2.0773,2.0319 130.5877,44.5665 134.6331,44.5611 2.0994,0 2.25,-0.4328 2.25,-6.4232 v -6.4203 l 6.5,-4.7726 c 3.575,-2.6249 6.5,-5.0812 6.5,-5.4584 0,-0.9595 -3.0083,-1.9664 -23.5,-7.8655 -21.8134,-6.2797 -38.6499,-11.3374 -73.5,-22.0792 -31.6547,-9.757 -45.9637,-13.9155 -48.0172,-13.9547 -2.3295,-0.045 -11.7207,8.6423 -16.616,15.3698 -8.206,11.2774 -13.3668,29.0415 -13.3668,46.0097 0,13.0553 3.0723,28.305 3.7455,18.5914 0.1715,-2.475 0.9926,-8.325 1.8245,-13 z m 533.4299,12.1257 c 0,-3.3921 -14.8719,-36.1363 -16.395,-36.0978 -8.8442,7.2903 -22.4093,13.9298 -30.5564,21.4136 -0.9963,1.2004 -0.4731,1.6251 3.1275,2.5389 7.1718,1.8199 30.9808,9.0657 36.3239,11.0544 5.6262,2.094 7.5,2.3666 7.5,1.0909 z m -73,-33.3022 c 14.7914,-12.4221 23.5083,-17.4402 37.0817,-21.347 6.5922,-1.8974 13.3206,-3.5516 14.9521,-3.6759 1.6314,-0.1243 2.9662,-0.6006 2.9662,-1.0585 0,-1.8742 -10.2174,-15.8017 -13.242,-18.0503 -4.5524,-3.3845 -12.0073,-5.7156 -20.4474,-6.3937 -6.7931,-0.5458 -7.6178,-0.3742 -14.9566,3.1109 -8.9555,4.253 -15.268,9.0978 -18.3488,14.0827 -2.7801,4.4982 -5.9752,20.0083 -5.992,29.0871 l -0.013,7.0788 4.25,2.0468 c 2.3375,1.1258 4.475,2.0943 4.75,2.1522 0.275,0.058 4.325,-3.107 9,-7.0331 z m 107.2723,-101.6109 c -11.4773,-9.4698 -39.4422,-26.5489 -58.2723,-35.5888 -12.3236,-5.9163 -39.7607,-16.1964 -40.7056,-15.2515 -0.2169,0.2169 2.8906,2.7811 6.9056,5.6982 4.015,2.917 9.713,7.582 12.6621,10.3666 5.5284,5.2201 15.6687,17.3822 15.0098,18.0028 -0.2045,0.1925 -6.4469,-1.1602 -13.8719,-3.0061 -7.425,-1.846 -14.175,-3.3719 -15,-3.391 -0.825,-0.019 5.7,4.0645 14.5,9.0748 8.8,5.0102 21.175,12.5806 27.5,16.823 6.325,4.2425 14.425,9.2303 18,11.0842 3.575,1.8539 7.8042,4.2598 9.3982,5.3465 l 2.8982,1.9759 -0.623,14.4254 -0.6231,14.4254 6.484,12.2555 c 6.0699,11.4729 14.1786,29.5852 16.8093,37.5465 0.9129,2.7629 1.2138,-7.1354 1.4287,-47 l 0.2723,-50.5 z m -440.2781,66.5374 c 0,-0.1375 -1.35,-5.2 -2.9928,-11.25 -1.6428,-6.05 -3.2765,-14.4478 -3.6305,-18.6617 -0.354,-4.214 -0.9636,-8.1794 -1.3546,-8.8121 -0.4957,-0.802 -3.337,0.063 -9.3813,2.8552 -13.9516,6.4457 -33.4676,18.6177 -32.08,20.008 1.4005,1.4033 49.4618,16.8218 49.4392,15.8606 z m 271.9825,-16.6992 c 1.8958,-7.1129 3.2265,-18.5675 2.8161,-24.2406 -0.2311,-3.1956 -0.3256,-5.8102 -0.2098,-5.8102 0.1158,0 1.8669,4.275 3.8915,9.5 2.0245,5.225 3.9398,9.5 4.2562,9.5 0.8066,0 -0.407,-20.9669 -1.7363,-30 -1.583,-10.7565 -5.5466,-28.8634 -9.5634,-43.6879 -18.6261,-68.7425 -22.8372,-81.4836 -34.4839,-104.3333 -12.5748,-24.6706 -28.4696,-44.3718 -50.947,-63.1473 -7.3271,-6.1204 -21.2038,-14.9454 -27.9452,-17.772 l -5.4452,-2.2831 -7.3581,3.8618 c -22.5105,11.8143 -49.4526,39.1261 -68.916,69.8618 -12.3321,19.4743 -20.9235,42.3035 -29.354,78 -1.6886,7.15 -6.4634,26.725 -10.6106,43.5 -9.4889,38.3818 -14.6013,63.3024 -12.8482,62.6296 0.6982,-0.2679 5.1025,-3.4997 9.7872,-7.1819 8.4064,-6.6071 8.5598,-6.8077 11.7202,-15.3212 9.4877,-25.5578 24.0515,-56.9781 32.6243,-70.3848 6.3295,-9.8983 18.5364,-23.8621 27.9906,-32.0188 9.1194,-7.868 23.7516,-18.5012 30.6549,-22.2768 l 4.7999,-2.6252 11.1722,4.8395 c 41.6081,18.0238 63.084,32.0525 76.0455,49.6755 24.4177,33.1994 41.5484,85.2783 37.1839,113.0422 l -0.7669,4.8781 3.1479,-2.3274 c 1.8653,-1.3791 3.5334,-3.7739 4.0942,-5.878 z m -223.4212,-81.5529 c 12.5933,-52.5822 23.6236,-81.0102 45.9446,-118.4111 11.5608,-19.3712 17.4178,-25.3348 30.8625,-31.424 l 5.8625,-2.6552 -1.8081,2.7462 c -6.7863,10.3067 -12.1822,19.7984 -16.5063,29.0352 -4.0553,8.6627 -4.8012,11.0584 -3.9519,12.6944 1.6678,3.2131 6.0413,16.6947 6.0413,18.6229 0,1.0557 -3.1319,3.963 -7.8541,7.2909 -4.3197,3.0442 -10.1264,7.5779 -12.9036,10.0749 -7.9019,7.1044 -23.2434,31.2065 -38.5275,60.5279 -8.0134,15.373 -8.1337,15.5662 -7.1594,11.4979 z m -180.4922,74.2807 c 17.0419,-15.6809 29.3078,-24.9184 48.83,-37.9502 15.3145,-10.3227 35.9997,-22.4148 46.8568,-27.3914 3.9875,-1.8278 7.25,-3.5221 7.25,-3.7652 0,-0.905 -27.5073,5.459 -31.7968,7.3565 -2.4516,1.0844 -4.6678,1.9717 -4.9249,1.9717 -1.1821,0 22.3092,-24.1588 27.6801,-28.4666 3.3229,-2.6652 6.0416,-5.1267 6.0416,-5.47 0,-0.7913 -19.9529,5.6926 -30.5,9.9113 -9.9365,3.9745 -29.5148,13.7821 -38.3524,19.2124 -3.6562,2.2465 -8.2226,5.0052 -10.1476,6.1303 -1.925,1.1251 -8.5055,5.5735 -14.6232,9.8854 l -11.1233,7.8398 -0.6586,5.8213 c -0.8753,7.7364 -0.6343,40.1361 0.2985,40.1361 0.4032,0 2.3966,-2.6697 5.1698,-5.2214 z m 469.4367,-9.8329 c 5.5,-1.1195 11.575,-1.9717 13.5,-1.8937 5.8639,0.2375 5.7496,9e-4 -1.5,-3.1073 -17.1194,-7.3398 -19.6956,-7.967 -27.1058,-6.5994 -3.7171,0.6861 -6.9346,1.7759 -7.1499,2.4219 -0.4908,1.4726 8.7239,11.0033 10.7557,11.1245 0.825,0.049 6,-0.8265 11.5,-1.946 z"
         id="path16"
         sodipodi:nodetypes="csscsssscssscsssssscsscssscsssssccsscssccsssssssssssssssssccsssssssssssssscsssssscsssssssssscsscssscscssssssscsscccsssscsssssssssssssssssssssssssscsssssssssssssscssscsscsssssssssssssssssssssssssssssssssssssssscsscccssscscsssssssscsssscsscssscscsssssscssssssssssscsssscsssssssscssccscsssssssssscccssscscssssscscsssssssscsssssssssscssscsscsscssssssscsssssssssssscsssssssssss"
         inkscape:label="Outline-2" /><path
         d="m 1127.4314,1894.4567 h 624.9852 c 19.599,0 35.6285,15.6705 35.4872,35 l -1.0502,143.671 c -0.1413,19.3294 -15.8882,35 -35.4872,35 h -623.935 c -19.599,0 -35.4872,-15.6701 -35.4872,-35 v -143.671 c 0,-19.33 15.8882,-35 35.4872,-35 z"
         style="display:inline;fill:#1c1c22;fill-opacity:1;stroke:none;stroke-width:10.3284;stroke-dasharray:none;stroke-opacity:1"
         id="path17"
         sodipodi:nodetypes="sssssssss" /><path
         d="m 1181.8119,2023.6164 12.2065,-0.3859 c 10.224,-0.3233 12.7631,-0.6766 15.633,-2.1749 7.0968,-3.705 10.6561,-9.3949 10.6886,-17.0869 0.023,-5.3783 -1.0578,-8.466 -4.1045,-11.7279 -4.4436,-4.7574 -7.8226,-5.6343 -21.7888,-5.6552 l -12.6348,-0.019 v -6.9766 -6.9766 l 22.4857,0.5634 c 12.9211,0.3237 23.8709,0.2284 25.7419,-0.2242 8.0977,-1.9586 13.451,-9.0344 13.4427,-17.7678 -0.01,-7.2923 -1.2613,-10.7656 -5.6518,-15.6489 -9.5741,-10.6488 -78.5274,-9.3796 -87.8316,-6.4592 -4.754,1.4921 -9.8252,6.6799 -10.58,10.823 -0.2839,1.5593 -0.4021,27.3278 -0.2625,57.2633 l 0.2539,54.4282 c 0.044,9.5659 8.2073,15.8113 21.038,15.8113 12.8257,0 20.8718,-8.273 20.8718,-17.1623 0,-10.2773 0.4801,-20.387 0.4919,-30.624 z m 70.0278,46.754 c 5.2331,-1.3177 10.5533,-6.6093 12.8573,-12.7882 l 1.7259,-4.6286 16.8198,-0.2323 c 15.4613,-0.2136 16.8585,-0.1098 17.3007,1.2849 2.6309,8.2982 5.9426,12.5791 11.8649,15.3368 4.694,2.1858 10.0298,2.5726 15.3002,1.1091 3.9879,-1.1074 9.852,-6.2298 11.4203,-9.9758 2.6684,-6.3738 1.7976,-10.3275 -9.9101,-44.9988 -21.3375,-63.1888 -23.207,-68.5235 -25.4742,-72.6889 -4.0041,-7.357 -10.8259,-11.0438 -20.4349,-11.0438 -10.5132,0 -18.9848,4.6785 -23.0529,12.7309 -1.9727,3.9047 -28.8799,85.2289 -32.3388,97.7405 -3.9265,14.2029 -0.056,23.9609 11.0798,27.9354 4.0196,1.4347 7.7604,1.4984 12.842,0.2188 z m 23.821,-57.4628 c 3.8276,-12.3982 6.675,-20.2589 7.2171,-19.9238 0.3657,0.2259 0.8651,1.2838 1.1099,2.3508 0.2448,1.0671 1.2544,3.9638 2.2437,6.4372 0.9894,2.4734 2.5365,6.4245 3.4382,8.7801 l 1.6393,4.283 h -8.1216 c -8.0276,0 -8.1146,-0.022 -7.5266,-1.9273 z m 104.4539,56.1048 c 3.9394,-2.0214 6.408,-4.5181 8.6792,-8.7777 1.2873,-2.4143 1.636,-5.1662 1.7912,-14.1339 l 0.1929,-11.1358 14.7222,-0.5659 c 8.0972,-0.3112 16.4853,-0.8302 18.6401,-1.1534 15.1933,-2.2783 29.8263,-17.3072 32.5215,-33.4013 5.7202,-34.1582 1.6687,-49.6584 -15.9577,-61.0509 -8.565,-5.5358 -10.3685,-5.7638 -45.5989,-5.7638 h -31.2659 l -4.7113,2.6607 c -5.7223,3.2316 -9.0158,8.0937 -10.3408,15.2658 -1.4327,7.7547 -0.6373,101.8504 0.8947,105.8521 2.6009,6.7939 7.5592,11.8194 13.5942,13.7786 3.7836,1.2283 13.0685,0.3601 16.8386,-1.5745 z m 10.422,-75.3069 c -0.3142,-0.3141 -0.5711,-6.134 -0.5711,-12.9331 v -12.3619 l 11.5089,0.2982 c 11.4113,0.2957 11.5313,0.3197 14.153,2.8324 6.8231,6.5395 4.7281,17.9347 -3.9653,21.567 -2.8875,1.2066 -20.0317,1.6913 -21.1255,0.5974 z m 143.1962,-61.8691 c -28.9991,-0.7795 -68.0629,14.9912 -69.679,66.3138 -1.2662,40.2086 30.1433,73.1546 66.2703,72.9946 37.5228,-0.1663 64.135,-35.3608 65.126,-70.762 0.8192,-29.2643 -23.5984,-67.5217 -61.7173,-68.5464 z m -11.7316,90.5817 c -6.2997,-1.8129 -12.248,-6.964 -15.6425,-13.5464 -2.907,-5.637 -2.7927,-14.3614 0.2643,-20.1631 5.9305,-11.2552 18.0609,-16.429 30.227,-12.8922 9.488,2.7582 17.5824,13.4256 17.5824,23.1714 0,9.2004 -7.1753,19.3819 -15.9814,22.6766 -4.931,1.845 -11.5964,2.1503 -16.4498,0.7537 z m 149.4541,21.6604 c 17.0596,15.8791 31.9741,29.365 50.0053,27.2685 9.4572,-1.0995 21.852,-9.9807 21.852,-18.3934 v -53.5375 c 0,-57.8823 0.081,-56.7958 -4.6337,-61.9677 -7.5732,-8.3072 -24.0062,-7.9212 -30.5194,0.7168 -3.4216,4.538 -3.8124,8.1592 -3.8173,35.38 l -0.01,25.9533 c -11.0058,-6.4034 -19.8651,-20.9854 -32.8775,-21.048 -13.1233,-0.063 -24.5959,12.344 -33.3601,20.9075 l -0.2762,-28.0995 c -0.1816,-18.4673 1.0855,-24.2466 -3.9771,-31.5484 -3.8831,-5.6006 -10.0037,-8.1738 -16.2228,-7.8288 -6.1593,0.3417 -12.4153,3.5459 -16.6901,9.5066 -5.9508,8.2976 -7.0528,18.4391 -3.3824,31.1281 6.3624,21.9956 6.396,36.962 0.1286,57.3746 -7.0479,22.9547 5.9056,41.6665 28.2787,41.1807 19.3286,0.1548 31.0157,-16.6785 45.5006,-26.9928 z"
         style="fill:#ffffff;fill-opacity:1;stroke-width:1"
         id="path18"
         sodipodi:nodetypes="cssssscccsscsssscssscsscsssssssssssscsssscscssscscssscssssssscsssssssssssssssscsssssccscssssssccc" /><path
         d="m 1430.1032,1353.4371 c -17.794,0.4251 -36.0439,9.1439 -58.2109,26.8769 -7.008,5.6062 -25.0465,23.804 -31.6465,31.9258 -17.9245,22.0576 -35.8706,56.6802 -47.6817,91.9864 l -3.3418,9.9863 -10.1328,1.1914 c -32.8367,3.8569 -70.1604,15.2284 -101.1328,30.8125 -23.6991,11.9245 -46.3319,27.7402 -62.8144,43.8945 l -8.25,8.086 -0.1172,65.0214 c -0.065,35.7615 -0.4026,66.2088 -0.75,67.6602 -0.354,1.4789 -5.9353,8.1139 -12.6973,15.0938 -19.9398,20.5823 -30.1637,35.7494 -35.9336,53.3085 -3.7543,11.4256 -4.6107,16.6591 -4.5937,28.0645 0.021,13.5699 2.2603,23.9829 7.5039,34.8945 9.7834,20.3589 24.2706,33.3086 46.3418,41.42 0.6877,0.2527 1.5626,0.745 2.3633,1.1406 -8.8946,6.3598 -14.7383,16.6213 -14.7383,28.2851 v 143.67 c 0,19.3294 15.8877,35 35.4863,35 h 623.9355 c 19.5986,0 35.3451,-15.6711 35.4864,-35 l 1.0507,-143.67 c 0.015,-2.0549 -0.2427,-4.0422 -0.5781,-6 h 0.5781 c 23.2293,-4.3533 40.4294,-19.9969 46.1543,-41.9765 3.6682,-14.0829 -0.1097,-29.589 -10.3242,-42.3692 -3.7015,-4.6313 -4.9098,-5.8416 -11.5371,-11.5586 -3.4553,-2.9806 -3.8035,-3.6943 -3.2285,-6.6406 0.3543,-1.8154 1.7936,-6.0008 3.1973,-9.3008 4.9774,-11.7009 8.3618,-22.0488 8.3808,-25.625 0.025,-4.6525 -2.4612,-11.6932 -5.1348,-14.539 -3.3278,-3.5423 -7.0701,-4.8945 -35.4043,-12.7871 -14.7207,-4.1007 -27.1356,-8.039 -27.5878,-8.752 -0.6323,-0.9967 -0.502,-149.329 -0.9571,-155.416 -0.1044,-1.3969 -16.6067,-17.5099 -24.5273,-23.5742 -41.969,-32.1336 -96.3093,-53.8316 -149.2813,-59.6075 l -6.4121,-0.6992 -3.7129,-11 c -10.2946,-30.5024 -22.5602,-55.8411 -37.6621,-77.8047 -19.7166,-28.6751 -44.2619,-51.1665 -69.8027,-63.9628 -11.0979,-5.5603 -21.6107,-8.2903 -32.2871,-8.0352 z"
         style="display:inline;fill:none;stroke:#ffffff;stroke-width:10.3284;stroke-opacity:1"
         id="path19"
         sodipodi:nodetypes="ssscccssccsssssscssssscccsssssssssssscssss" /><rect
         style="fill:#1c1c22;fill-opacity:1;stroke:#1c1c22;stroke-width:10.328;stroke-dasharray:none;stroke-opacity:1"
         id="rect19"
         width="23.095684"
         height="11.87611"
         x="1660.5841"
         y="2105.4619" /><circle
         style="display:inline;fill:#ffffff;fill-opacity:1;stroke:none;stroke-width:10.328;stroke-dasharray:none;stroke-opacity:1"
         id="circle19"
         cx="1672.132"
         cy="2111.2449"
         r="5.7754154" /></g></g></svg>
