<svg width="78" height="36" viewBox="0 0 78 36" fill="none" xmlns="http://www.w3.org/2000/svg">
<path d="M54 0H50V4H54V0Z" fill="#48576A"/>
<path d="M0 24H4V18H12V14H4V10H14V6H0V24Z" fill="#48576A"/>
<path fill-rule="evenodd" clip-rule="evenodd" d="M26 24H30V10H28V8H26V6H20V8H18V10H16V24H20V18H26V24ZM26 14H20V12H22V10H24V12H26V14Z" fill="#48576A"/>
<path fill-rule="evenodd" clip-rule="evenodd" d="M32 24H36V18H44V16H46V8H44V6H32V24ZM42 14H36V10H42V14Z" fill="#48576A"/>
<path fill-rule="evenodd" clip-rule="evenodd" d="M60 24V22H62V8H60V6H50V8H48V22H50V24H60ZM58 20H52V10H58V20Z" fill="#48576A"/>
<path d="M72 24H76V22H78V6H74V18H72V16H70V18H68V6H64V22H66V24H70V22H72V24Z" fill="#48576A"/>
<path d="M56 0H60V4H56V0Z" fill="#48576A"/>
<path d="M41 31V32H43V31H41Z" fill="#48576A"/>
<path d="M41 33V34H43V33H41Z" fill="#48576A"/>
<path d="M41 35H44V36H41V35Z" fill="#48576A"/>
<path d="M45 34V35H44V34H45Z" fill="#48576A"/>
<path d="M45 34V32H46V34H45Z" fill="#48576A"/>
<path d="M62 31H67V32H62V31Z" fill="#48576A"/>
<path d="M62 33V34H67V33H62Z" fill="#48576A"/>
<path d="M62 35H67V36H62V35Z" fill="#48576A"/>
<path d="M55 31V32H59V33H58V34H57V33H56V34H57V35H58V36H59V35H58V34H59V33H60V31H55Z" fill="#48576A"/>
<path d="M48 35H49V36H48V35Z" fill="#48576A"/>
<path d="M49 35H50V31H49V35Z" fill="#48576A"/>
<path d="M52 35H53V36H52V35Z" fill="#48576A"/>
<path d="M52 35H51V31H52V35Z" fill="#48576A"/>
<path d="M11 31H16V32H11V31Z" fill="#48576A"/>
<path d="M11 33V34H13V35H11V36H13V35H14V34H16V33H11Z" fill="#48576A"/>
<path d="M21 31H20V32H18V33H20V34H19V35H18V36H19V35H20V34H21V33H22V35H21V36H22V35H23V32H21V31Z" fill="#48576A"/>
<path d="M33 31H32V33H33V31Z" fill="#48576A"/>
<path d="M35 31H34V33H35V31Z" fill="#48576A"/>
<path d="M37 31H36V35H33V36H36V35H37V31Z" fill="#48576A"/>
<path d="M30 33V35H29V34H25V33H30Z" fill="#48576A"/>
<path d="M29 35V36H26V35H29Z" fill="#48576A"/>
<path d="M25 31H30V32H25V31Z" fill="#48576A"/>
</svg>
