<?xml version="1.0" encoding="UTF-8" standalone="no"?>
<!-- Created with Inkscape (http://www.inkscape.org/) -->

<svg
   width="149.99994"
   height="22.412109"
   viewBox="0 0 39.687485 5.9298704"
   version="1.1"
   id="svg1"
   inkscape:version="1.3.2 (091e20e, 2023-11-25, custom)"
   xml:space="preserve"
   sodipodi:docname="logo.svg"
   xmlns:inkscape="http://www.inkscape.org/namespaces/inkscape"
   xmlns:sodipodi="http://sodipodi.sourceforge.net/DTD/sodipodi-0.dtd"
   xmlns="http://www.w3.org/2000/svg"
   xmlns:svg="http://www.w3.org/2000/svg"><sodipodi:namedview
     id="namedview1"
     pagecolor="#ffffff"
     bordercolor="#000000"
     borderopacity="0.25"
     inkscape:showpageshadow="2"
     inkscape:pageopacity="0.0"
     inkscape:pagecheckerboard="false"
     inkscape:deskcolor="#333333"
     inkscape:document-units="px"
     showguides="false"
     showgrid="false"
     labelstyle="below"
     inkscape:zoom="0.95328212"
     inkscape:cx="494.08249"
     inkscape:cy="-2636.1556"
     inkscape:window-width="3818"
     inkscape:window-height="2032"
     inkscape:window-x="-117"
     inkscape:window-y="58"
     inkscape:window-maximized="0"
     inkscape:current-layer="g53"><inkscape:grid
       id="grid2"
       units="px"
       originx="-17.189146"
       originy="841.77508"
       spacingx="2.1166667"
       spacingy="2.1166667"
       empcolor="#404040"
       empopacity="0.25098039"
       color="#737373"
       opacity="0.14901961"
       empspacing="16"
       dotted="false"
       gridanglex="30"
       gridanglez="30"
       visible="false" /><sodipodi:guide
       position="244.88064,-813.95877"
       orientation="1,0"
       id="guide122"
       inkscape:locked="false" /><sodipodi:guide
       position="397.41293,-767.78898"
       orientation="1,0"
       id="guide123"
       inkscape:locked="false" /><inkscape:page
       x="2.3951973e-06"
       y="-7.6750994e-06"
       width="39.687485"
       height="5.9298706"
       id="page1"
       margin="0"
       bleed="0" /></sodipodi:namedview><defs
     id="defs1" /><g
     inkscape:groupmode="layer"
     id="layer3"
     inkscape:label="Page 3"
     style="display:inline"
     transform="translate(206.11918,840.09037)"><g
       id="g53"
       transform="matrix(0.35134543,0,0,0.35134543,154.39523,-495.30471)"
       inkscape:export-filename="..\www\paultrott.github.io\logo_2.png"
       inkscape:export-xdpi="100.45"
       inkscape:export-ydpi="100.45"><path
         d="m -1026.0968,-981.32945 v 5.37877 h 1.0766 v -2.1518 h 1.0752 v 1.07517 h 1.0751 v -1.07517 -1.07664 h -2.1503 v -1.07516 h 2.1503 v -1.07517 z m 3.2269,1.07517 v 1.07516 h 1.0767 v -1.07516 z m 0,3.22697 v 1.07663 h 1.0767 v -1.07663 z m 4.3301,-4.30214 v 1.07517 h 2.1518 v -1.07517 z m 2.1518,1.07517 v 1.07516 h -2.1518 v -1.07516 h -1.0766 v 4.3036 h 1.0766 v -2.1518 h 2.1518 v 2.1518 h 1.0752 v -4.3036 z m 3.2005,-1.07517 v 5.37877 h 1.0767 v -3.22844 h 1.0751 v -1.07516 h -1.0751 v -1.07517 z m 2.1518,2.15033 v 1.07664 h 1.0767 v -1.07664 z m 1.0767,1.07664 v 1.07517 h 1.0751 v 1.07663 h 1.0752 v -5.37877 h -1.0752 v 3.22697 z m 4.3021,-3.22697 v 5.37877 h 3.2284 v -1.07663 h -2.1518 v -3.22697 h 2.1518 v -1.07517 z m 3.2284,1.07517 v 3.22697 h 1.0752 v -3.22697 z m 4.30217,-1.07517 v 1.07517 h 2.1518 v -1.07517 z m 2.1518,1.07517 v 3.22697 h 1.07664 v -3.22697 z m 0,3.22697 h -2.1518 v 1.07663 h 2.1518 z m -2.1518,0 v -3.22697 h -1.07517 v 3.22697 z m 5.37877,-4.30214 v 5.37877 h 1.07664 v -3.22844 h 1.07516 v -1.07516 h -1.07516 v -1.07517 z m 2.1518,2.15033 v 1.07664 h 1.07664 v -1.07664 z m 1.07664,0 h 1.07517 v 3.22844 h 1.07663 v -5.37877 h -1.07663 v 1.07517 h -1.07517 z m 4.30214,-2.15033 v 5.37877 h 3.22844 v -1.07663 h -2.15181 v -4.30214 z m 5.38024,0 v 1.07517 h 1.07517 v -1.07517 z m 1.07517,1.07517 v 1.07516 h 1.07516 v -1.07516 z m 1.07516,1.07516 v 3.22844 h 1.07664 v -3.22844 z m 1.07664,0 h 1.07516 v -1.07516 h -1.07516 z m 1.07516,-1.07516 h 1.07664 v -1.07517 h -1.07664 z m 8.60722,-1.07517 v 1.07517 h 3.22697 v -1.07517 z m 0,1.07517 h -1.07664 v 3.22697 h 1.07664 z m 0,3.22697 v 1.07663 h 2.1518 v -1.07663 z m 2.1518,0 h 1.07517 v -2.15181 h -2.15181 v 1.07664 h 1.07664 z m 3.22697,-4.30214 v 5.37877 h 3.22697 v -1.07663 h -2.1518 v -1.07517 h 2.1518 v -1.07664 h -2.1518 v -1.07516 h 2.1518 v -1.07517 z m 5.37877,0 v 5.37877 h 1.07517 v -3.22844 h 1.07664 v -1.07516 h -1.07664 v -1.07517 z m 2.15181,2.15033 v 1.07664 h 1.07516 v -1.07664 z m 1.07516,1.07664 v 1.07517 h 1.07664 v 1.07663 h 1.07516 v -5.37877 h -1.07516 v 3.22697 z m 4.30361,-3.22697 v 5.37877 h 3.22697 v -1.07663 h -2.15181 v -1.07517 h 2.15181 v -1.07664 h -2.15181 v -1.07516 h 2.15181 v -1.07517 z m 5.37877,0 v 5.37877 h 1.07664 v -2.1518 h 1.07516 v 1.07517 h 1.07517 v -1.07517 -1.07664 h -2.15033 v -1.07516 h 2.15033 v -1.07517 z m 3.22697,1.07517 v 1.07516 h 1.07664 v -1.07516 z m 0,3.22697 v 1.07663 h 1.07664 v -1.07663 z m 4.33008,-4.30214 v 1.07517 h 2.1518 v -1.07517 z m 2.1518,1.07517 v 1.07516 h -2.1518 v -1.07516 h -1.07664 v 4.3036 h 1.07664 v -2.1518 h 2.1518 v 2.1518 h 1.07517 v -4.3036 z m 3.2005,-1.07517 v 1.07517 h 1.07664 v 4.3036 h 1.07516 v -4.3036 h 1.07664 v -1.07517 z m 5.37877,0 v 5.37877 h 3.22844 v -1.07663 h -2.1518 v -1.07517 h 2.1518 v -1.07664 h -2.1518 v -1.07516 h 2.1518 v -1.07517 z m 5.38024,0 v 5.37877 h 3.22697 v -1.07663 h -2.1518 v -3.22697 h 2.1518 v -1.07517 z m 3.22697,1.07517 v 3.22697 h 1.07517 v -3.22697 z m -109.73163,10.42367 v 5.37877 h 1.0766 v -5.37877 z m 3.2269,0 v 5.37877 h 1.0767 v -3.22697 h 1.0751 v -1.07664 h -1.0751 v -1.07516 z m 2.1518,2.1518 v 1.07517 h 1.0767 v -1.07517 z m 1.0767,1.07517 v 1.07663 h 1.0751 v 1.07517 h 1.0767 v -5.37877 h -1.0767 v 3.22697 z m 4.3021,-3.22697 v 5.37877 h 3.2285 v -1.07517 h -2.1518 v -3.22844 h 2.1518 v -1.07516 z m 3.2285,1.07516 v 3.22844 h 1.0751 v -3.22844 z m 3.2269,-1.07516 v 5.37877 h 1.0752 v -5.37877 z m 3.227,0 v 5.37877 h 3.2284 v -1.07517 h -2.1518 v -1.07663 h 2.1518 v -1.07517 h -2.1518 v -1.07664 h 2.1518 v -1.07516 z m 10.75901,0 v 1.07516 h 3.22697 v -1.07516 z m 0,1.07516 h -1.07664 v 3.22844 h 1.07664 z m 0,3.22844 v 1.07517 h 2.15033 v -1.07517 z m 2.15033,0 h 1.07664 v -2.1518 h -2.15181 v 1.07517 h 1.07517 z m 4.33008,-4.3036 v 1.07516 h 2.1518 v -1.07516 z m 2.1518,1.07516 v 1.07664 h -2.1518 v -1.07664 h -1.07664 v 4.30361 h 1.07664 v -2.1518 h 2.1518 v 2.1518 h 1.07517 v -4.30361 z m 3.2005,-1.07516 v 5.37877 h 1.07664 v -3.22697 h 1.07516 v -1.07664 h -1.07516 v -1.07516 z m 2.1518,2.1518 v 1.07517 h 1.07664 v -1.07517 z m 1.07664,0 h 1.07517 v 3.22697 h 1.07516 v -5.37877 h -1.07516 v 1.07516 h -1.07517 z m 4.30213,-2.1518 v 5.37877 h 3.22844 v -1.07517 h -2.1518 v -1.07663 h 2.1518 v -1.07517 h -2.1518 v -1.07664 h 2.1518 v -1.07516 z m 9.68238,0 v 5.37877 h 3.22697 v -1.07517 h -2.15033 v -3.22844 h 2.15033 v -1.07516 z m 3.22697,1.07516 v 3.22844 h 1.07664 v -3.22844 z m 3.22844,-1.07516 v 5.37877 h 3.22697 v -1.07517 h -2.1518 v -1.07663 h 2.1518 v -1.07517 h -2.1518 v -1.07664 h 2.1518 v -1.07516 z m 5.37878,0 v 2.1518 h 1.07516 v -2.1518 z m 1.07516,2.1518 v 2.1518 h 1.07664 v -2.1518 z m 1.07664,2.1518 v 1.07517 h 1.07516 v -1.07517 z m 1.07516,0 h 1.07664 v -2.1518 h -1.07664 z m 1.07664,-2.1518 h 1.07517 v -2.1518 h -1.07517 z m 3.22697,-2.1518 v 5.37877 h 3.22697 v -1.07517 h -2.1518 v -1.07663 h 2.1518 v -1.07517 h -2.1518 v -1.07664 h 2.1518 v -1.07516 z m 5.37877,0 v 5.37877 h 3.22697 v -1.07517 h -2.1518 v -4.3036 z m 6.45541,0 v 1.07516 h 2.15034 v -1.07516 z m 2.15034,1.07516 v 3.22844 h 1.07663 v -3.22844 z m 0,3.22844 h -2.15034 v 1.07517 h 2.15034 z m -2.15034,0 v -3.22844 h -1.07663 v 3.22844 z m 5.37878,-4.3036 v 5.37877 h 1.07516 v -2.1518 h 2.15181 v -1.07517 h -2.15181 v -1.07664 h 2.15181 v -1.07516 z m 3.22697,1.07516 v 1.07664 h 1.07516 v -1.07664 z m 3.22696,-1.07516 v 5.37877 h 3.22844 v -1.07517 h -2.1518 v -1.07663 h 2.1518 v -1.07517 h -2.1518 v -1.07664 h 2.1518 v -1.07516 z m 5.37878,0 v 5.37877 h 1.07663 v -2.1518 h 1.07517 v 1.07663 h 1.07664 v -1.07663 -1.07517 h -2.15181 v -1.07664 h 2.15181 v -1.07516 z m 3.22844,1.07516 v 1.07664 h 1.07516 v -1.07664 z m 0,3.22844 v 1.07517 h 1.07516 v -1.07517 z"
         style="font-size:9.03669px;fill:#ffffff;stroke-width:0.753058"
         id="path2" /></g></g></svg>
